# AST/ASF file generated using VICON BodyLanguage
# -----------------------------------------------
:version 1.10
:name VICON
:units
  mass 1.0
  length 0.45
  angle deg
:documentation
   .ast/.asf automatically generated from VICON data using
   VICON BodyBuilder and BodyLanguage model FoxedUp or BRILLIANT.MOD
:root
   order TX TY TZ RX RY RZ
   axis XYZ
   position 0 0 0  
   orientation 0 0 0 
:bonedata
  begin
     id 1 
     name lhipjoint
     direction 0.734343 -0.627749 0.258209 
     length 2.5437 
     axis 0 0 0  XYZ
  end
  begin
     id 2 
     name lfemur
     direction 0.34202 -0.939693 0  
     length 6.7391  
     axis 0 0 20  XYZ
    dof rx ry rz
    limits (-160.0 20.0)
           (-70.0 70.0)
           (-60.0 70.0)
  end
  begin
     id 3 
     name ltibia
     direction 0.34202 -0.939693 0   
     length 7.21536   
     axis 0 0 20   XYZ
    dof rx
    limits (-10.0 170.0)
  end
  begin
     id 4 
     name lfoot
     direction 0.0489572 -0.134509 0.989702   
     length 1.61313   
     axis -90 7.62852e-016 20   XYZ
    dof rx rz
    limits (-45.0 90.0)
           (-70.0 20.0)
  end
  begin
     id 5 
     name ltoes
     direction 1.53451e-011 -4.21692e-011 1   
     length 0.823104   
     axis -90 7.62852e-016 20   XYZ
    dof rx
    limits (-90.0 20.0)
  end
  begin
     id 6 
     name rhipjoint
     direction -0.746398 -0.615468 0.253157   
     length 2.59446  
     axis 0 0 0  XYZ 
  end
  begin
     id 7 
     name rfemur
     direction -0.34202 -0.939693 0   
     length 6.7075   
     axis 0 0 -20   XYZ
    dof rx ry rz
    limits (-160.0 20.0)
           (-70.0 70.0)
           (-70.0 60.0)
  end
  begin
     id 8 
     name rtibia
     direction -0.34202 -0.939693 0   
     length 7.27262   
     axis 0 0 -20   XYZ
    dof rx
    limits (-10.0 170.0)
 end
 begin
     id 9 
     name rfoot
     direction -0.0455203 -0.125066 0.991104   
     length 1.91095  
     axis -90 -7.62852e-016 -20   XYZ
    dof rx rz
    limits (-45.0 90.0)
           (-20.0 70.0)
  end
  begin
     id 10 
     name rtoes
     direction -1.53601e-011 -4.21913e-011 1   
     length 0.969037   
     axis -90 -7.62852e-016 -20   XYZ
    dof rx
    limits (-90.0 20.0)
  end
  begin
     id 11 
     name lowerback
     direction 0.0181546 0.999122 -0.0377542   
     length 1.99916   
     axis 0 0 0   XYZ
    dof rx ry rz
    limits (-20.0 45.0)
           (-30.0 30.0)
           (-30.0 30.0)
  end
  begin
     id 12 
     name upperback
     direction 0.0203486 0.99589 0.0882534   
     length 1.951   
     axis 0 0 0   XYZ
    dof rx ry rz
    limits (-20.0 45.0)
           (-30.0 30.0)
           (-30.0 30.0)
  end
  begin
     id 13 
     name thorax
     direction 0.0131685 0.994241 0.106355   
     length 1.97461   
     axis 0 0 0   XYZ
    dof rx ry rz
    limits (-20.0 45.0)
           (-30.0 30.0)
           (-30.0 30.0)
  end
  begin
     id 14 
     name lowerneck
     direction -0.0281395 0.999325 0.023617   
     length 1.7959   
     axis 0 0 0   XYZ
    dof rx ry rz
    limits (-20.0 45.0)
           (-30.0 30.0)
           (-30.0 30.0)
  end
  begin
     id 15 
     name upperneck
     direction 0.0288721 0.991984 -0.123019   
     length 1.79917   
     axis 0 0 0   XYZ
    dof rx ry rz
    limits (-20.0 45.0)
           (-30.0 30.0)
           (-30.0 30.0)
  end
  begin
     id 16
     name head
     direction 0.0133797 0.998944 -0.0439492  
     length 1.80902  
     axis 0 0 0   XYZ
    dof rx ry rz
    limits (-20.0 45.0)
           (-30.0 30.0)
           (-30.0 30.0)
  end
  begin
     id 17 
     name lclavicle
     direction 0.919195 0.377107 0.113449  
     length 3.17815  
     axis 0 0 0   XYZ
    dof ry rz
    limits (-20.0 10.0)
           (0.0 20.0)
  end
  begin
     id 18 
     name lhumerus
     direction 1 -4.48959e-011 2.13129e-027   
     length 4.84137   
     axis 180 -30 -90   XYZ
    dof rx ry rz
    limits (-60.0 90.0)
           (-90.0 90.0)
           (-90.0 90.0)
  end
  begin
     id 19
     name lradius
     direction 1 -4.48957e-011 -6.30627e-028   
     length 3.2452   
     axis 180 -30 -90   XYZ
    dof rx
    limits (-10.0 170.0)
  end
  begin
     id 20
     name lwrist
     direction 1 -4.4901e-011 9.13299e-027   
     length 1.6226   
     axis -6.84618e-015 90 90   XYZ
    dof ry
    limits (-180.0 0.0)
 end
  begin
     id 21 
     name lhand
     direction 1 -4.48816e-011 1.82293e-026   
     length 0.521221   
     axis -1.16502e-014 90 90   XYZ
    dof rx rz
    limits (-90.0 90.0)
           (-45.0 45.0)
  end
  begin
     id 22 
     name lfingers
     direction 1 -4.49108e-011 3.65687e-026   
     length 0.420221   
     axis -2.33008e-014 90 90   XYZ
    dof rx
    limits (0.0 90.0)
  end
  begin
     id 23
     name lthumb
     direction 0.707107 -6.34943e-011 0.707107   
     length 0.603356   
     axis -90 45 5.69224e-014   XYZ
    dof rx rz
    limits (-45.0 45.0)
           (-45.0 45.0)
  end
  begin
     id 24 
     name rclavicle
     direction -0.90847 0.38596 0.160368   
     length 3.12973  
     axis 0 0 0   XYZ 
    dof ry rz
    limits (-10.0 20.0)
           (-20.0 0.0)
  end
  begin
     id 25 
     name rhumerus
     direction -1 -4.48974e-011 4.47268e-028  
     length 4.72284   
     axis 180 30 90   XYZ
    dof rx ry rz
    limits (-90.0 60.0)
           (-90.0 90.0)
           (-90.0 90.0)
  end
  begin
     id 26 
     name rradius
     direction -1 -4.48969e-011 3.43203e-027   
     length 3.23459   
     axis 180 30 90   XYZ
    dof rx
    limits (-10.0 170.0)
  end
  begin
     id 27 
     name rwrist
     direction -1 -4.48969e-011 9.12911e-027   
     length 1.6173   
     axis -6.84618e-015 -90 -90   XYZ
    dof ry
    limits (-180.0 0.0)
  end
  begin
     id 28
     name rhand
     direction -1 -4.49194e-011 1.83006e-026   
     length 0.307416   
     axis -1.16502e-014 -90 -90   XYZ
    dof rx rz
    limits (-90.0 90.0)
           (-45.0 45.0)
  end
  begin
     id 29
     name rfingers
     direction -1 -4.48423e-011 3.63103e-026   
     length 0.247847   
     axis -2.33008e-014 -90 -90   XYZ
    dof rx
    limits (0.0 90.0)
  end
  begin
     id 30
     name rthumb
     direction -0.707107 -6.34802e-011 0.707107   
     length 0.35586   
     axis -90 -45 -5.69224e-014   XYZ
    dof rx rz
    limits (-45.0 45.0)
           (-45.0 45.0)
  end
:hierarchy
  begin
    root lhipjoint rhipjoint lowerback
    lhipjoint lfemur
    lfemur ltibia
    ltibia lfoot
    lfoot ltoes
    rhipjoint rfemur
    rfemur rtibia
    rtibia rfoot
    rfoot rtoes
    lowerback upperback
    upperback thorax
    thorax lowerneck lclavicle rclavicle
    lowerneck upperneck
    upperneck head
    lclavicle lhumerus
    lhumerus lradius
    lradius lwrist
    lwrist lhand lthumb
    lhand lfingers
    rclavicle rhumerus
    rhumerus rradius
    rradius rwrist
    rwrist rhand rthumb
    rhand rfingers
  end

#!OML:ASF H:\Terrain\Patient Classification 1\Animal1\Tuesday\Animal1.ASF
:FULLY-SPECIFIED
:DEGREES
737
root 13.4138 17.6785 -13.9274 -165.894 -14.3042 -173.314
lowerback -6.35245 2.0224 3.21632
upperback -8.69987 1.61057 -3.60904
thorax -5.31556 0.110773 -5.52631
lowerneck 5.49407 5.11851 -4.69419
upperneck 7.26987 5.91303 7.12887
head 0.97581 2.70903 3.02648
rclavicle 7.55382e-015 -4.77083e-014
rhumerus 13.957 8.87259 22.1022
rradius 26.4643
rwrist -30.5697
rhand 6.22626 6.08991
rfingers 7.12502
rthumb 31.5389 -21.2074
lclavicle 7.55382e-015 -4.77083e-014
lhumerus -30.2592 -9.18627 14.9395
lradius 38.6565
lwrist -20.2279
lhand 22.4895 31.6391
lfingers 7.12502
lthumb 46.8468 54.3726
rfemur -13.9292 7.98281 29.8752
rtibia 23.6456
rfoot 31.3413 -27.3436
rtoes 4.41522
lfemur -35.9083 -2.45845 -19.4218
ltibia 26.1733
lfoot 0.0700841 37.1691
ltoes 57.249
738
root 13.3392 17.65 -13.9993 -166.168 -14.8085 -173.187
lowerback -6.46756 2.10826 3.40558
upperback -8.60218 1.74736 -3.52731
thorax -5.12681 0.189289 -5.53935
lowerneck 5.57438 5.09556 -4.5849
upperneck 7.02858 5.91368 7.05897
head 0.890222 2.71645 2.97538
rclavicle -2.14687e-014 1.59028e-014
rhumerus 14.0679 8.73398 22.0727
rradius 26.4193
rwrist -30.8365
rhand 5.93701 5.83269
rfingers 7.12502
rthumb 31.2633 -21.5183
lclavicle -2.14687e-014 1.59028e-014
lhumerus -30.3785 -9.07723 14.9903
lradius 38.6718
lwrist -20.3268
lhand 22.2771 31.6734
lfingers 7.12502
lthumb 46.6502 54.4923
rfemur -13.6104 7.16333 29.9751
rtibia 24.0317
rfoot 36.2839 -18.4722
rtoes -13.5784
lfemur -35.8787 -1.53854 -20.2482
ltibia 26.9
lfoot 1.7357 36.8138
ltoes 56.4137
739
root 13.264 17.6198 -14.07 -166.444 -15.4052 -172.783
lowerback -6.59138 2.21484 3.88338
upperback -8.59725 1.89343 -3.3796
thorax -5.02648 0.249201 -5.64719
lowerneck 5.70952 5.0994 -4.39173
upperneck 6.95834 5.93135 6.96631
head 0.852516 2.72779 2.90306
rclavicle -1.88845e-015 1.59028e-015
rhumerus 14.194 8.81018 22.0908
rradius 26.4483
rwrist -30.9329
rhand 5.7669 5.6665
rfingers 7.12502
rthumb 31.1012 -21.7156
lclavicle -1.88845e-015 1.59028e-015
lhumerus -30.4763 -9.438 15.0991
lradius 38.6063
lwrist -20.126
lhand 22.5317 31.7342
lfingers 7.12502
lthumb 46.8859 54.4506
rfemur -13.4559 6.23994 30.3427
rtibia 24.5046
rfoot 38.2485 -11.1001
rtoes -23.6921
lfemur -35.8803 -1.04285 -20.4974
ltibia 27.5642
lfoot 0.742712 36.6855
ltoes 56.8202
740
root 13.1865 17.5947 -14.1395 -166.769 -15.9996 -172.336
lowerback -6.65147 2.34094 4.38748
upperback -8.5977 2.06851 -3.19685
thorax -4.96333 0.32325 -5.73309
lowerneck 5.58305 5.1033 -4.28405
upperneck 7.16529 5.93273 6.94057
head 0.944475 2.7325 2.88281
rclavicle 1.91827e-014 1.27222e-014
rhumerus 14.2921 8.79855 22.1107
rradius 26.4397
rwrist -30.6272
rhand 5.74499 5.8498
rfingers 7.12502
rthumb 31.0803 -21.5363
lclavicle 1.91827e-014 1.27222e-014
lhumerus -30.5598 -10.0653 15.3706
lradius 38.5394
lwrist -19.8311
lhand 22.7916 31.9858
lfingers 7.12502
lthumb 47.1262 54.5962
rfemur -13.3628 5.42577 30.7113
rtibia 25.1804
rfoot 39.0029 -5.08782
rtoes -29.4787
lfemur -35.776 -1.02046 -20.4319
ltibia 28.1067
lfoot -0.758935 36.429
ltoes 57.3458
741
root 13.1026 17.5831 -14.2107 -166.952 -16.5402 -172.326
lowerback -6.79618 2.4281 4.47747
upperback -8.55973 2.18995 -3.13539
thorax -4.82483 0.391225 -5.70979
lowerneck 5.35356 5.09492 -4.44499
upperneck 7.31098 5.90678 7.20996
head 1.0186 2.72316 3.01357
rclavicle -1.76918e-014 -3.97569e-014
rhumerus 14.4129 8.49232 22
rradius 26.3246
rwrist -29.8396
rhand 5.84693 6.38979
rfingers 7.12502
rthumb 31.1775 -20.9777
lclavicle -1.76918e-014 -3.97569e-014
lhumerus -30.6615 -10.5386 15.5842
lradius 38.4723
lwrist -19.6367
lhand 22.7341 32.1862
lfingers 7.12502
lthumb 47.073 54.8202
rfemur -13.602 4.43824 30.5569
rtibia 26.1576
rfoot 38.7922 -4.46046
rtoes -29.5064
lfemur -35.5272 -1.11302 -20.8096
ltibia 28.4315
lfoot -2.26525 36.0766
ltoes 58.1954
742
root 13.0124 17.5736 -14.2779 -167.163 -17.1129 -172.319
lowerback -6.85857 2.47351 4.63748
upperback -8.55795 2.252 -3.07117
thorax -4.77751 0.420008 -5.72851
lowerneck 5.33181 5.10944 -4.73083
upperneck 7.38073 5.89341 7.59605
head 1.02462 2.71151 3.19968
rclavicle -2.56432e-014 1.59028e-015
rhumerus 14.6611 8.52818 22.0449
rradius 26.2407
rwrist -29.4238
rhand 6.03843 6.83428
rfingers 7.12502
rthumb 31.3599 -20.498
lclavicle -2.56432e-014 1.59028e-015
lhumerus -30.9618 -10.9593 15.7795
lradius 38.5053
lwrist -19.4638
lhand 22.531 32.2652
lfingers 7.12502
lthumb 46.8852 54.9818
rfemur -13.9434 3.34778 30.3152
rtibia 27.4303
rfoot 37.6716 -9.54037
rtoes -23.3611
lfemur -35.0864 -1.00171 -21.3248
ltibia 28.4778
lfoot -3.2016 35.5819
ltoes 59.3162
743
root 12.9215 17.5649 -14.3432 -167.352 -17.5815 -172.522
lowerback -6.85209 2.53857 4.56513
upperback -8.56973 2.34697 -3.04748
thorax -4.7838 0.474058 -5.6592
lowerneck 5.39829 5.08386 -4.72903
upperneck 7.4831 5.84508 7.61455
head 1.0488 2.68454 3.20708
rclavicle -4.1049e-014 9.54166e-015
rhumerus 14.8994 9.05799 22.3015
rradius 26.2832
rwrist -29.9668
rhand 6.07841 7.20145
rfingers 7.12502
rthumb 31.398 -20.1234
lclavicle -4.1049e-014 9.54166e-015
lhumerus -31.312 -11.4375 16.0335
lradius 38.6656
lwrist -19.216
lhand 22.5904 32.3922
lfingers 7.12502
lthumb 46.9402 55.0847
rfemur -14.1827 2.663 29.7957
rtibia 28.8366
rfoot 36.464 -13.1673
rtoes -17.5616
lfemur -34.519 -0.777628 -22.1047
ltibia 28.4312
lfoot -1.57192 34.948
ltoes 59.1246
744
root 12.8335 17.5556 -14.4083 -167.354 -18.0191 -173.005
lowerback -6.95742 2.58933 4.12709
upperback -8.59971 2.41797 -3.07665
thorax -4.7597 0.530871 -5.43556
lowerneck 5.30375 5.0654 -4.61366
upperneck 7.73318 5.81383 7.49322
head 1.15513 2.67118 3.15372
rclavicle 1.75924e-014 -9.06458e-014
rhumerus 15.0985 9.13781 22.2297
rradius 26.3791
rwrist -30.2513
rhand 5.8556 7.43161
rfingers 7.12502
rthumb 31.1857 -19.9343
lclavicle 1.75924e-014 -9.06458e-014
lhumerus -31.5188 -11.7354 16.1937
lradius 38.6573
lwrist -19.1985
lhand 22.9523 32.3517
lfingers 7.12502
lthumb 47.2747 54.8959
rfemur -14.673 2.13301 29.0147
rtibia 30.3158
rfoot 36.5615 -13.8972
rtoes -15.8834
lfemur -34.0349 -0.726231 -23.0501
ltibia 28.4131
lfoot 0.949403 34.1891
ltoes 57.9214
745
root 12.7473 17.5357 -14.4709 -167.512 -18.6373 -173.009
lowerback -6.9663 2.60439 4.14107
upperback -8.69007 2.4354 -2.9522
thorax -4.85321 0.535598 -5.31278
lowerneck 5.27971 5.11456 -4.65941
upperneck 7.96298 5.85526 7.55056
head 1.22776 2.68838 3.18692
rclavicle 4.27387e-014 -3.18055e-015
rhumerus 15.349 9.19069 22.1314
rradius 26.5224
rwrist -30.1772
rhand 5.5682 7.40119
rfingers 7.12502
rthumb 30.9118 -20.0171
lclavicle 4.27387e-014 -3.18055e-015
lhumerus -31.7621 -11.9257 16.3544
lradius 38.4779
lwrist -19.499
lhand 23.0889 32.0422
lfingers 7.12502
lthumb 47.401 54.5297
rfemur -15.2607 1.35747 28.7989
rtibia 31.8705
rfoot 38.0169 -9.00241
rtoes -21.8499
lfemur -33.5916 -0.715851 -23.3905
ltibia 28.3848
lfoot 2.87792 33.3056
ltoes 56.604
746
root 12.6585 17.5254 -14.536 -167.675 -19.3465 -172.935
lowerback -7.00368 2.63792 4.31048
upperback -8.80275 2.46687 -2.86086
thorax -4.94727 0.53514 -5.31217
lowerneck 5.67076 5.08813 -4.33896
upperneck 7.8185 5.83884 7.23576
head 1.13404 2.67786 3.00633
rclavicle 4.79071e-014 -3.18055e-015
rhumerus 15.5337 8.6847 21.6995
rradius 26.4763
rwrist -29.1845
rhand 5.69994 7.36489
rfingers 7.12502
rthumb 31.0374 -20.0295
lclavicle 4.79071e-014 -3.18055e-015
lhumerus -32.0289 -12.4909 16.6663
lradius 38.4191
lwrist -19.4189
lhand 22.5879 32.041
lfingers 7.12502
lthumb 46.9378 54.7345
rfemur -15.8696 0.734855 28.5922
rtibia 33.4988
rfoot 38.0761 -8.6587
rtoes -20.6599
lfemur -33.1385 -0.774684 -23.5702
ltibia 28.3535
lfoot 4.48031 32.1736
ltoes 55.2744
747
root 12.567 17.5209 -14.6044 -167.726 -20.1117 -173.055
lowerback -7.21473 2.66362 4.36922
upperback -8.89203 2.47544 -2.88129
thorax -4.92163 0.527583 -5.36133
lowerneck 6.31271 4.97604 -3.75954
upperneck 7.41946 5.7431 6.66158
head 0.937145 2.63046 2.68332
rclavicle 2.44505e-014 1.74931e-014
rhumerus 15.6325 7.92897 20.9898
rradius 26.412
rwrist -28.3093
rhand 5.8682 6.67076
rfingers 7.12502
rthumb 31.1977 -20.6928
lclavicle 2.44505e-014 1.74931e-014
lhumerus -32.3169 -13.4714 17.0485
lradius 38.611
lwrist -18.7186
lhand 21.4253 32.3427
lfingers 7.12502
lthumb 45.8605 55.4951
rfemur -16.53 0.23323 28.1036
rtibia 35.2317
rfoot 36.6952 -14.3813
rtoes -9.07445
lfemur -32.6792 -0.744083 -24.0102
ltibia 28.3058
lfoot 6.91346 30.7399
ltoes 52.8128
748
root 12.4795 17.5042 -14.667 -167.705 -20.9821 -173.288
lowerback -7.46769 2.61637 4.23513
upperback -8.96246 2.39235 -2.87797
thorax -4.8707 0.487377 -5.27804
lowerneck 6.30321 4.9422 -3.78403
upperneck 7.60563 5.67489 6.76872
head 0.998037 2.59392 2.72923
rclavicle -1.19271e-015 -3.33958e-014
rhumerus 15.8101 7.84003 20.732
rradius 26.4081
rwrist -28.4291
rhand 5.93697 6.17365
rfingers 7.12502
rthumb 31.2633 -21.1773
lclavicle -1.19271e-015 -3.33958e-014
lhumerus -32.6039 -14.047 17.2919
lradius 38.5732
lwrist -18.2603
lhand 20.4326 31.4594
lfingers 7.12502
lthumb 44.9379 54.9834
rfemur -17.343 -0.552909 27.5937
rtibia 37.164
rfoot 37.017 -13.6968
rtoes -8.22143
lfemur -32.2282 -0.499087 -24.6917
ltibia 28.0999
lfoot 11.0715 28.3084
ltoes 47.3995
749
root 12.3929 17.4926 -14.7212 -167.677 -21.8549 -173.592
lowerback -7.6376 2.52978 3.98427
upperback -8.99572 2.27395 -2.84575
thorax -4.83456 0.441223 -5.10204
lowerneck 5.78189 4.95776 -4.05968
upperneck 8.20162 5.64059 7.11095
head 1.26244 2.57822 2.92298
rclavicle 2.78299e-014 3.18055e-014
rhumerus 16.0166 8.54528 21.0587
rradius 26.5098
rwrist -29.326
rhand 5.62834 6.09013
rfingers 7.12502
rthumb 30.9691 -21.3172
lclavicle 2.78299e-014 3.18055e-014
lhumerus -32.9161 -14.2597 17.4406
lradius 38.4241
lwrist -18.2925
lhand 20.3933 30.3063
lfingers 7.12502
lthumb 44.9013 53.8446
rfemur -18.399 -1.16438 27.0289
rtibia 39.2552
rfoot 38.7406 -10.0854
rtoes -13.7046
lfemur -31.65 -0.486082 -25.3029
ltibia 27.769
lfoot 13.4373 25.8472
ltoes 42.9744
